<?xml version="1.0" encoding="UTF-8" standalone="no"?>
<svg xmlns:rdf="http://www.w3.org/1999/02/22-rdf-syntax-ns#" xmlns="http://www.w3.org/2000/svg" height="32px" width="32px" version="1.1" xmlns:cc="http://creativecommons.org/ns#" xmlns:dc="http://purl.org/dc/elements/1.1/" viewBox="0 0 32 32">
 <metadata>
  <rdf:RDF>
   <cc:Work rdf:about="">
    <dc:format>image/svg+xml</dc:format>
    <dc:type rdf:resource="http://purl.org/dc/dcmitype/StillImage"/>
    <dc:title/>
   </cc:Work>
  </rdf:RDF>
 </metadata>
 <desc/>
 <g fill-rule="evenodd" fill="none">
  <g fill="#929292">
   <path d="m16.5 29c6.904 0 12.5-5.596 12.5-12.5 0-6.9036-5.596-12.5-12.5-12.5-6.9036 0-12.5 5.5964-12.5 12.5 0 6.904 5.5964 12.5 12.5 12.5zm0-1c6.351 0 11.5-5.149 11.5-11.5s-5.149-11.5-11.5-11.5-11.5 5.149-11.5 11.5 5.149 11.5 11.5 11.5zm1.768-9.732c-1.768 1.768-8.4855 4.95-8.4855 4.95s3.1815-6.718 4.9495-8.486 8.486-4.9495 8.486-4.9495-3.182 6.7175-4.95 8.4855zm-1.768-12.268c-0.276 0-0.5 0.2151-0.5 0.4905v3.019c0 0.2709 0.232 0.4905 0.5 0.4905 0.276 0 0.5-0.2151 0.5-0.4905v-3.019c0-0.2709-0.232-0.4905-0.5-0.4905zm10.543 10.543c0-0.276-0.215-0.5-0.49-0.5h-3.019c-0.271 0-0.491 0.232-0.491 0.5 0 0.276 0.215 0.5 0.491 0.5h3.019c0.271 0 0.49-0.232 0.49-0.5zm-10.543 10.544c0.276 0 0.5-0.215 0.5-0.491v-3.019c0-0.271-0.232-0.49-0.5-0.49-0.276 0-0.5 0.215-0.5 0.49v3.019c0 0.271 0.232 0.491 0.5 0.491zm-10.543-10.544c0 0.276 0.215 0.5 0.4904 0.5h3.0191c0.2709 0 0.4905-0.232 0.4905-0.5 0-0.276-0.2151-0.5-0.4905-0.5h-3.0191c-0.2708 0-0.4904 0.232-0.4904 0.5zm9.4683-1.043c-1.06 1.061-3.464 5.586-3.464 5.586s4.525-2.404 5.586-3.465l-2.122-2.121z"/>
  </g>
 </g>
</svg>
